<svg width="32" height="32" viewBox="0 0 32 32" fill="none" xmlns="http://www.w3.org/2000/svg">
<mask id="mask0_2_178" style="mask-type:alpha" maskUnits="userSpaceOnUse" x="0" y="0" width="32" height="32">
<rect width="32" height="32" fill="#0086FF"/>
</mask>
<g mask="url(#mask0_2_178)">
<path d="M16 16C16.7333 16 17.3611 15.7388 17.8833 15.2166C18.4056 14.6944 18.6667 14.0666 18.6667 13.3333C18.6667 12.6 18.4056 11.9722 17.8833 11.45C17.3611 10.9277 16.7333 10.6666 16 10.6666C15.2667 10.6666 14.6389 10.9277 14.1167 11.45C13.5944 11.9722 13.3333 12.6 13.3333 13.3333C13.3333 14.0666 13.5944 14.6944 14.1167 15.2166C14.6389 15.7388 15.2667 16 16 16ZM16 25.8C18.7111 23.3111 20.7222 21.05 22.0333 19.0166C23.3444 16.9833 24 15.1777 24 13.6C24 11.1777 23.2278 9.1944 21.6833 7.64996C20.1389 6.10551 18.2444 5.33329 16 5.33329C13.7556 5.33329 11.8611 6.10551 10.3167 7.64996C8.77222 9.1944 8 11.1777 8 13.6C8 15.1777 8.65556 16.9833 9.96667 19.0166C11.2778 21.05 13.2889 23.3111 16 25.8ZM16 29.3333C12.4222 26.2888 9.75 23.4611 7.98334 20.85C6.21667 18.2388 5.33334 15.8222 5.33334 13.6C5.33334 10.2666 6.40556 7.61107 8.55 5.63329C10.6944 3.65551 13.1778 2.66663 16 2.66663C18.8222 2.66663 21.3056 3.65551 23.45 5.63329C25.5944 7.61107 26.6667 10.2666 26.6667 13.6C26.6667 15.8222 25.7833 18.2388 24.0167 20.85C22.25 23.4611 19.5778 26.2888 16 29.3333Z" fill="#0086FF"/>
</g>
</svg>
