<svg width="32" height="32" viewBox="0 0 32 32" fill="none" xmlns="http://www.w3.org/2000/svg">
<mask id="mask0_2_184" style="mask-type:alpha" maskUnits="userSpaceOnUse" x="0" y="0" width="32" height="32">
<rect width="32" height="32" fill="#5E5D5D"/>
</mask>
<g mask="url(#mask0_2_184)">
<path d="M16 16C14.5333 16 13.2778 15.4778 12.2333 14.4334C11.1889 13.3889 10.6667 12.1334 10.6667 10.6667C10.6667 9.20004 11.1889 7.94449 12.2333 6.90004C13.2778 5.8556 14.5333 5.33337 16 5.33337C17.4667 5.33337 18.7222 5.8556 19.7667 6.90004C20.8111 7.94449 21.3333 9.20004 21.3333 10.6667C21.3333 12.1334 20.8111 13.3889 19.7667 14.4334C18.7222 15.4778 17.4667 16 16 16ZM5.33333 26.6667V22.9334C5.33333 22.1778 5.52777 21.4834 5.91666 20.85C6.30555 20.2167 6.82222 19.7334 7.46666 19.4C8.84444 18.7112 10.2444 18.1945 11.6667 17.85C13.0889 17.5056 14.5333 17.3334 16 17.3334C17.4667 17.3334 18.9111 17.5056 20.3333 17.85C21.7556 18.1945 23.1556 18.7112 24.5333 19.4C25.1778 19.7334 25.6944 20.2167 26.0833 20.85C26.4722 21.4834 26.6667 22.1778 26.6667 22.9334V26.6667H5.33333ZM7.99999 24H24V22.9334C24 22.6889 23.9389 22.4667 23.8167 22.2667C23.6944 22.0667 23.5333 21.9112 23.3333 21.8C22.1333 21.2 20.9222 20.75 19.7 20.45C18.4778 20.15 17.2444 20 16 20C14.7556 20 13.5222 20.15 12.3 20.45C11.0778 20.75 9.86666 21.2 8.66666 21.8C8.46666 21.9112 8.30555 22.0667 8.18333 22.2667C8.06111 22.4667 7.99999 22.6889 7.99999 22.9334V24ZM16 13.3334C16.7333 13.3334 17.3611 13.0723 17.8833 12.55C18.4056 12.0278 18.6667 11.4 18.6667 10.6667C18.6667 9.93337 18.4056 9.3056 17.8833 8.78337C17.3611 8.26115 16.7333 8.00004 16 8.00004C15.2667 8.00004 14.6389 8.26115 14.1167 8.78337C13.5944 9.3056 13.3333 9.93337 13.3333 10.6667C13.3333 11.4 13.5944 12.0278 14.1167 12.55C14.6389 13.0723 15.2667 13.3334 16 13.3334Z" fill="#5E5D5D"/>
</g>
</svg>
